<mxfile host="app.diagrams.net" agent="Mozilla/5.0 (Macintosh; Intel Mac OS X 10_15_7) AppleWebKit/537.36 (KHTML, like Gecko) Chrome/134.0.0.0 Safari/537.36" version="26.1.0">
  <diagram name="Page-1" id="9s_fkskkzxXWI4V7XGYr">
    <mxGraphModel grid="1" page="1" gridSize="10" guides="1" tooltips="1" connect="1" arrows="1" fold="1" pageScale="1" pageWidth="827" pageHeight="1169" math="0" shadow="0">
      <root>
        <mxCell id="0" />
        <mxCell id="1" parent="0" />
        <mxCell id="RMdziG6QxaL6qYT7HOpn-1" value="Remote Patient Monitoring" style="swimlane;html=1;childLayout=stackLayout;resizeParent=1;resizeParentMax=0;horizontal=1;startSize=20;horizontalStack=0;whiteSpace=wrap;" vertex="1" parent="1">
          <mxGeometry x="100" y="100" width="1700" height="690" as="geometry" />
        </mxCell>
        <mxCell id="RMdziG6QxaL6qYT7HOpn-2" value="PHR/PHD" style="swimlane;html=1;startSize=20;horizontal=0;" vertex="1" parent="RMdziG6QxaL6qYT7HOpn-1">
          <mxGeometry y="20" width="1700" height="200" as="geometry" />
        </mxCell>
        <mxCell id="RMdziG6QxaL6qYT7HOpn-7" style="edgeStyle=orthogonalEdgeStyle;rounded=0;orthogonalLoop=1;jettySize=auto;html=1;" edge="1" parent="RMdziG6QxaL6qYT7HOpn-2" source="RMdziG6QxaL6qYT7HOpn-5" target="RMdziG6QxaL6qYT7HOpn-6">
          <mxGeometry relative="1" as="geometry" />
        </mxCell>
        <mxCell id="RMdziG6QxaL6qYT7HOpn-5" value="" style="points=[[0.145,0.145,0],[0.5,0,0],[0.855,0.145,0],[1,0.5,0],[0.855,0.855,0],[0.5,1,0],[0.145,0.855,0],[0,0.5,0]];shape=mxgraph.bpmn.event;html=1;verticalLabelPosition=bottom;labelBackgroundColor=#ffffff;verticalAlign=top;align=center;perimeter=ellipsePerimeter;outlineConnect=0;aspect=fixed;outline=standard;symbol=general;" vertex="1" parent="RMdziG6QxaL6qYT7HOpn-2">
          <mxGeometry x="60" y="95" width="50" height="50" as="geometry" />
        </mxCell>
        <mxCell id="RMdziG6QxaL6qYT7HOpn-9" style="edgeStyle=orthogonalEdgeStyle;rounded=0;orthogonalLoop=1;jettySize=auto;html=1;" edge="1" parent="RMdziG6QxaL6qYT7HOpn-2" source="RMdziG6QxaL6qYT7HOpn-6" target="RMdziG6QxaL6qYT7HOpn-8">
          <mxGeometry relative="1" as="geometry" />
        </mxCell>
        <mxCell id="RMdziG6QxaL6qYT7HOpn-6" value="Capture Data" style="points=[[0.25,0,0],[0.5,0,0],[0.75,0,0],[1,0.25,0],[1,0.5,0],[1,0.75,0],[0.75,1,0],[0.5,1,0],[0.25,1,0],[0,0.75,0],[0,0.5,0],[0,0.25,0]];shape=mxgraph.bpmn.task2;whiteSpace=wrap;rectStyle=rounded;size=10;html=1;container=1;expand=0;collapsible=0;taskMarker=service;" vertex="1" parent="RMdziG6QxaL6qYT7HOpn-2">
          <mxGeometry x="160" y="80" width="120" height="80" as="geometry" />
        </mxCell>
        <mxCell id="RMdziG6QxaL6qYT7HOpn-8" value="Send Observations" style="points=[[0.25,0,0],[0.5,0,0],[0.75,0,0],[1,0.25,0],[1,0.5,0],[1,0.75,0],[0.75,1,0],[0.5,1,0],[0.25,1,0],[0,0.75,0],[0,0.5,0],[0,0.25,0]];shape=mxgraph.bpmn.task2;whiteSpace=wrap;rectStyle=rounded;size=10;html=1;container=1;expand=0;collapsible=0;taskMarker=send;bpmnShapeType=task;" vertex="1" parent="RMdziG6QxaL6qYT7HOpn-2">
          <mxGeometry x="330" y="80" width="120" height="80" as="geometry" />
        </mxCell>
        <mxCell id="RMdziG6QxaL6qYT7HOpn-44" value="May be started by eReferral" style="text;html=1;strokeColor=#d6b656;fillColor=#fff2cc;align=center;verticalAlign=middle;whiteSpace=wrap;rounded=0;" vertex="1" parent="RMdziG6QxaL6qYT7HOpn-2">
          <mxGeometry x="27.5" y="160" width="115" height="30" as="geometry" />
        </mxCell>
        <mxCell id="RMdziG6QxaL6qYT7HOpn-3" value="Clinical Decision Suport" style="swimlane;html=1;startSize=20;horizontal=0;" vertex="1" parent="RMdziG6QxaL6qYT7HOpn-1">
          <mxGeometry y="220" width="1700" height="280" as="geometry" />
        </mxCell>
        <mxCell id="RMdziG6QxaL6qYT7HOpn-10" value="Receive Observations" style="points=[[0.25,0,0],[0.5,0,0],[0.75,0,0],[1,0.25,0],[1,0.5,0],[1,0.75,0],[0.75,1,0],[0.5,1,0],[0.25,1,0],[0,0.75,0],[0,0.5,0],[0,0.25,0]];shape=mxgraph.bpmn.task2;whiteSpace=wrap;rectStyle=rounded;size=10;html=1;container=1;expand=0;collapsible=0;taskMarker=receive;bpmnShapeType=task;" vertex="1" parent="RMdziG6QxaL6qYT7HOpn-3">
          <mxGeometry x="330" y="20" width="120" height="80" as="geometry" />
        </mxCell>
        <mxCell id="RMdziG6QxaL6qYT7HOpn-18" style="edgeStyle=orthogonalEdgeStyle;rounded=0;orthogonalLoop=1;jettySize=auto;html=1;" edge="1" parent="RMdziG6QxaL6qYT7HOpn-3" source="RMdziG6QxaL6qYT7HOpn-12" target="RMdziG6QxaL6qYT7HOpn-17">
          <mxGeometry relative="1" as="geometry" />
        </mxCell>
        <mxCell id="RMdziG6QxaL6qYT7HOpn-12" value="Process Observations" style="points=[[0.25,0,0],[0.5,0,0],[0.75,0,0],[1,0.25,0],[1,0.5,0],[1,0.75,0],[0.75,1,0],[0.5,1,0],[0.25,1,0],[0,0.75,0],[0,0.5,0],[0,0.25,0]];shape=mxgraph.bpmn.task2;whiteSpace=wrap;rectStyle=rounded;size=10;html=1;container=1;expand=0;collapsible=0;taskMarker=service;bpmnShapeType=task;" vertex="1" parent="RMdziG6QxaL6qYT7HOpn-3">
          <mxGeometry x="510" y="20" width="120" height="80" as="geometry" />
        </mxCell>
        <mxCell id="RMdziG6QxaL6qYT7HOpn-13" style="edgeStyle=orthogonalEdgeStyle;rounded=0;orthogonalLoop=1;jettySize=auto;html=1;entryX=0;entryY=0.5;entryDx=0;entryDy=0;entryPerimeter=0;" edge="1" parent="RMdziG6QxaL6qYT7HOpn-3" source="RMdziG6QxaL6qYT7HOpn-10" target="RMdziG6QxaL6qYT7HOpn-12">
          <mxGeometry relative="1" as="geometry" />
        </mxCell>
        <mxCell id="RMdziG6QxaL6qYT7HOpn-48" style="edgeStyle=orthogonalEdgeStyle;rounded=0;orthogonalLoop=1;jettySize=auto;html=1;" edge="1" parent="RMdziG6QxaL6qYT7HOpn-3" source="RMdziG6QxaL6qYT7HOpn-17" target="RMdziG6QxaL6qYT7HOpn-47">
          <mxGeometry relative="1" as="geometry" />
        </mxCell>
        <mxCell id="RMdziG6QxaL6qYT7HOpn-17" value="Perform Clinical Decision Support&lt;br&gt;(Assessment and Diagnosis)" style="points=[[0.25,0,0],[0.5,0,0],[0.75,0,0],[1,0.25,0],[1,0.5,0],[1,0.75,0],[0.75,1,0],[0.5,1,0],[0.25,1,0],[0,0.75,0],[0,0.5,0],[0,0.25,0]];shape=mxgraph.bpmn.task2;whiteSpace=wrap;rectStyle=rounded;size=10;html=1;container=1;expand=0;collapsible=0;taskMarker=service;bpmnShapeType=task;" vertex="1" parent="RMdziG6QxaL6qYT7HOpn-3">
          <mxGeometry x="690" y="20" width="120" height="80" as="geometry" />
        </mxCell>
        <mxCell id="RMdziG6QxaL6qYT7HOpn-24" value="Triage Issues" style="points=[[0.25,0,0],[0.5,0,0],[0.75,0,0],[1,0.25,0],[1,0.5,0],[1,0.75,0],[0.75,1,0],[0.5,1,0],[0.25,1,0],[0,0.75,0],[0,0.5,0],[0,0.25,0]];shape=mxgraph.bpmn.task2;whiteSpace=wrap;rectStyle=rounded;size=10;html=1;container=1;expand=0;collapsible=0;taskMarker=user;bpmnShapeType=task;" vertex="1" parent="RMdziG6QxaL6qYT7HOpn-3">
          <mxGeometry x="870" y="160" width="120" height="80" as="geometry" />
        </mxCell>
        <mxCell id="RMdziG6QxaL6qYT7HOpn-30" value="" style="edgeStyle=orthogonalEdgeStyle;rounded=0;orthogonalLoop=1;jettySize=auto;html=1;" edge="1" parent="RMdziG6QxaL6qYT7HOpn-3" source="RMdziG6QxaL6qYT7HOpn-27" target="RMdziG6QxaL6qYT7HOpn-29">
          <mxGeometry relative="1" as="geometry" />
        </mxCell>
        <mxCell id="RMdziG6QxaL6qYT7HOpn-27" value="Plan&lt;br&gt;(Care Plan)" style="points=[[0.25,0,0],[0.5,0,0],[0.75,0,0],[1,0.25,0],[1,0.5,0],[1,0.75,0],[0.75,1,0],[0.5,1,0],[0.25,1,0],[0,0.75,0],[0,0.5,0],[0,0.25,0]];shape=mxgraph.bpmn.task2;whiteSpace=wrap;rectStyle=rounded;size=10;html=1;container=1;expand=0;collapsible=0;taskMarker=user;bpmnShapeType=task;dashed=1;" vertex="1" parent="RMdziG6QxaL6qYT7HOpn-3">
          <mxGeometry x="1051" y="160" width="120" height="80" as="geometry" />
        </mxCell>
        <mxCell id="RMdziG6QxaL6qYT7HOpn-29" value="Implement (Lab Order, Referrals, Prescriptions, etc)" style="points=[[0.25,0,0],[0.5,0,0],[0.75,0,0],[1,0.25,0],[1,0.5,0],[1,0.75,0],[0.75,1,0],[0.5,1,0],[0.25,1,0],[0,0.75,0],[0,0.5,0],[0,0.25,0]];shape=mxgraph.bpmn.task2;whiteSpace=wrap;rectStyle=rounded;size=10;html=1;container=1;expand=0;collapsible=0;taskMarker=user;bpmnShapeType=task;dashed=1;" vertex="1" parent="RMdziG6QxaL6qYT7HOpn-3">
          <mxGeometry x="1220" y="160" width="120" height="80" as="geometry" />
        </mxCell>
        <mxCell id="RMdziG6QxaL6qYT7HOpn-42" style="edgeStyle=orthogonalEdgeStyle;rounded=0;orthogonalLoop=1;jettySize=auto;html=1;" edge="1" parent="RMdziG6QxaL6qYT7HOpn-3" source="RMdziG6QxaL6qYT7HOpn-31" target="RMdziG6QxaL6qYT7HOpn-40">
          <mxGeometry relative="1" as="geometry" />
        </mxCell>
        <mxCell id="RMdziG6QxaL6qYT7HOpn-43" value="No" style="edgeLabel;html=1;align=center;verticalAlign=middle;resizable=0;points=[];" connectable="0" vertex="1" parent="RMdziG6QxaL6qYT7HOpn-42">
          <mxGeometry x="-0.0476" y="1" relative="1" as="geometry">
            <mxPoint as="offset" />
          </mxGeometry>
        </mxCell>
        <mxCell id="RMdziG6QxaL6qYT7HOpn-31" value="Evaluate&lt;br&gt;(still a problem)" style="points=[[0.25,0.25,0],[0.5,0,0],[0.75,0.25,0],[1,0.5,0],[0.75,0.75,0],[0.5,1,0],[0.25,0.75,0],[0,0.5,0]];shape=mxgraph.bpmn.gateway2;html=1;verticalLabelPosition=bottom;labelBackgroundColor=#ffffff;verticalAlign=top;align=center;perimeter=rhombusPerimeter;outlineConnect=0;outline=none;symbol=none;gwType=exclusive;" vertex="1" parent="RMdziG6QxaL6qYT7HOpn-3">
          <mxGeometry x="1255" y="35" width="50" height="50" as="geometry" />
        </mxCell>
        <mxCell id="RMdziG6QxaL6qYT7HOpn-32" style="edgeStyle=orthogonalEdgeStyle;rounded=0;orthogonalLoop=1;jettySize=auto;html=1;entryX=0.5;entryY=1;entryDx=0;entryDy=0;entryPerimeter=0;" edge="1" parent="RMdziG6QxaL6qYT7HOpn-3" source="RMdziG6QxaL6qYT7HOpn-29" target="RMdziG6QxaL6qYT7HOpn-31">
          <mxGeometry relative="1" as="geometry" />
        </mxCell>
        <mxCell id="RMdziG6QxaL6qYT7HOpn-34" value="" style="points=[[0.145,0.145,0],[0.5,0,0],[0.855,0.145,0],[1,0.5,0],[0.855,0.855,0],[0.5,1,0],[0.145,0.855,0],[0,0.5,0]];shape=mxgraph.bpmn.event;html=1;verticalLabelPosition=bottom;labelBackgroundColor=#ffffff;verticalAlign=top;align=center;perimeter=ellipsePerimeter;outlineConnect=0;aspect=fixed;outline=end;symbol=terminate;" vertex="1" parent="RMdziG6QxaL6qYT7HOpn-3">
          <mxGeometry x="1609" y="35" width="50" height="50" as="geometry" />
        </mxCell>
        <mxCell id="RMdziG6QxaL6qYT7HOpn-41" value="" style="edgeStyle=orthogonalEdgeStyle;rounded=0;orthogonalLoop=1;jettySize=auto;html=1;" edge="1" parent="RMdziG6QxaL6qYT7HOpn-3" source="RMdziG6QxaL6qYT7HOpn-40" target="RMdziG6QxaL6qYT7HOpn-34">
          <mxGeometry relative="1" as="geometry" />
        </mxCell>
        <mxCell id="RMdziG6QxaL6qYT7HOpn-40" value="Discharge Report" style="points=[[0.25,0,0],[0.5,0,0],[0.75,0,0],[1,0.25,0],[1,0.5,0],[1,0.75,0],[0.75,1,0],[0.5,1,0],[0.25,1,0],[0,0.75,0],[0,0.5,0],[0,0.25,0]];shape=mxgraph.bpmn.task2;whiteSpace=wrap;rectStyle=rounded;size=10;html=1;container=1;expand=0;collapsible=0;taskMarker=send;bpmnShapeType=transaction;isLoopSub=1;" vertex="1" parent="RMdziG6QxaL6qYT7HOpn-3">
          <mxGeometry x="1389" y="20" width="120" height="80" as="geometry" />
        </mxCell>
        <mxCell id="RMdziG6QxaL6qYT7HOpn-45" value="eReport" style="text;html=1;strokeColor=#d6b656;fillColor=#fff2cc;align=center;verticalAlign=middle;whiteSpace=wrap;rounded=0;" vertex="1" parent="RMdziG6QxaL6qYT7HOpn-3">
          <mxGeometry x="1389" y="130" width="115" height="30" as="geometry" />
        </mxCell>
        <mxCell id="RMdziG6QxaL6qYT7HOpn-46" style="edgeStyle=orthogonalEdgeStyle;rounded=0;orthogonalLoop=1;jettySize=auto;html=1;entryX=0;entryY=0.5;entryDx=0;entryDy=0;entryPerimeter=0;" edge="1" parent="RMdziG6QxaL6qYT7HOpn-3" source="RMdziG6QxaL6qYT7HOpn-24" target="RMdziG6QxaL6qYT7HOpn-27">
          <mxGeometry relative="1" as="geometry" />
        </mxCell>
        <mxCell id="RMdziG6QxaL6qYT7HOpn-49" style="edgeStyle=orthogonalEdgeStyle;rounded=0;orthogonalLoop=1;jettySize=auto;html=1;" edge="1" parent="RMdziG6QxaL6qYT7HOpn-3" source="RMdziG6QxaL6qYT7HOpn-47" target="RMdziG6QxaL6qYT7HOpn-24">
          <mxGeometry relative="1" as="geometry" />
        </mxCell>
        <mxCell id="RMdziG6QxaL6qYT7HOpn-50" value="Yes" style="edgeLabel;html=1;align=center;verticalAlign=middle;resizable=0;points=[];" connectable="0" vertex="1" parent="RMdziG6QxaL6qYT7HOpn-49">
          <mxGeometry x="0.2267" relative="1" as="geometry">
            <mxPoint as="offset" />
          </mxGeometry>
        </mxCell>
        <mxCell id="RMdziG6QxaL6qYT7HOpn-51" style="edgeStyle=orthogonalEdgeStyle;rounded=0;orthogonalLoop=1;jettySize=auto;html=1;" edge="1" parent="RMdziG6QxaL6qYT7HOpn-3" source="RMdziG6QxaL6qYT7HOpn-47" target="RMdziG6QxaL6qYT7HOpn-31">
          <mxGeometry relative="1" as="geometry" />
        </mxCell>
        <mxCell id="RMdziG6QxaL6qYT7HOpn-52" value="No" style="edgeLabel;html=1;align=center;verticalAlign=middle;resizable=0;points=[];" connectable="0" vertex="1" parent="RMdziG6QxaL6qYT7HOpn-51">
          <mxGeometry x="0.18" y="1" relative="1" as="geometry">
            <mxPoint as="offset" />
          </mxGeometry>
        </mxCell>
        <mxCell id="RMdziG6QxaL6qYT7HOpn-47" value="Issues" style="points=[[0.25,0.25,0],[0.5,0,0],[0.75,0.25,0],[1,0.5,0],[0.75,0.75,0],[0.5,1,0],[0.25,0.75,0],[0,0.5,0]];shape=mxgraph.bpmn.gateway2;html=1;verticalLabelPosition=bottom;labelBackgroundColor=#ffffff;verticalAlign=top;align=center;perimeter=rhombusPerimeter;outlineConnect=0;outline=none;symbol=none;gwType=exclusive;" vertex="1" parent="RMdziG6QxaL6qYT7HOpn-3">
          <mxGeometry x="905" y="35" width="50" height="50" as="geometry" />
        </mxCell>
        <mxCell id="RMdziG6QxaL6qYT7HOpn-4" value="Health Information Exchange" style="swimlane;html=1;startSize=20;horizontal=0;" vertex="1" parent="RMdziG6QxaL6qYT7HOpn-1">
          <mxGeometry y="500" width="1700" height="190" as="geometry" />
        </mxCell>
        <mxCell id="RMdziG6QxaL6qYT7HOpn-14" value="Clinical Data Repository" style="shape=datastore;html=1;labelPosition=center;verticalLabelPosition=bottom;align=center;verticalAlign=top;" vertex="1" parent="RMdziG6QxaL6qYT7HOpn-4">
          <mxGeometry x="715" y="60" width="70" height="70" as="geometry" />
        </mxCell>
        <mxCell id="RMdziG6QxaL6qYT7HOpn-11" style="edgeStyle=orthogonalEdgeStyle;rounded=0;orthogonalLoop=1;jettySize=auto;html=1;" edge="1" parent="RMdziG6QxaL6qYT7HOpn-1" source="RMdziG6QxaL6qYT7HOpn-8" target="RMdziG6QxaL6qYT7HOpn-10">
          <mxGeometry relative="1" as="geometry" />
        </mxCell>
        <mxCell id="RMdziG6QxaL6qYT7HOpn-15" style="edgeStyle=orthogonalEdgeStyle;rounded=0;orthogonalLoop=1;jettySize=auto;html=1;entryX=0;entryY=0.5;entryDx=0;entryDy=0;" edge="1" parent="RMdziG6QxaL6qYT7HOpn-1" source="RMdziG6QxaL6qYT7HOpn-12" target="RMdziG6QxaL6qYT7HOpn-14">
          <mxGeometry relative="1" as="geometry">
            <Array as="points">
              <mxPoint x="570" y="595" />
            </Array>
          </mxGeometry>
        </mxCell>
        <mxCell id="RMdziG6QxaL6qYT7HOpn-16" value="FHIR Observations&amp;nbsp;&lt;br&gt;(e.g. Weight, Step Count, Blood Pressure)" style="edgeLabel;html=1;align=center;verticalAlign=middle;resizable=0;points=[];" connectable="0" vertex="1" parent="RMdziG6QxaL6qYT7HOpn-15">
          <mxGeometry x="-0.12" y="1" relative="1" as="geometry">
            <mxPoint x="-1" y="-55" as="offset" />
          </mxGeometry>
        </mxCell>
        <mxCell id="RMdziG6QxaL6qYT7HOpn-20" style="edgeStyle=orthogonalEdgeStyle;rounded=0;orthogonalLoop=1;jettySize=auto;html=1;entryX=0.25;entryY=1;entryDx=0;entryDy=0;entryPerimeter=0;exitX=0.15;exitY=0.05;exitDx=0;exitDy=0;exitPerimeter=0;" edge="1" parent="RMdziG6QxaL6qYT7HOpn-1" source="RMdziG6QxaL6qYT7HOpn-14" target="RMdziG6QxaL6qYT7HOpn-17">
          <mxGeometry relative="1" as="geometry">
            <Array as="points">
              <mxPoint x="726" y="520" />
              <mxPoint x="720" y="520" />
            </Array>
          </mxGeometry>
        </mxCell>
        <mxCell id="RMdziG6QxaL6qYT7HOpn-21" value="Existing Data" style="edgeLabel;html=1;align=center;verticalAlign=middle;resizable=0;points=[];" connectable="0" vertex="1" parent="RMdziG6QxaL6qYT7HOpn-20">
          <mxGeometry x="0.208" y="1" relative="1" as="geometry">
            <mxPoint x="-4" y="-39" as="offset" />
          </mxGeometry>
        </mxCell>
        <mxCell id="RMdziG6QxaL6qYT7HOpn-22" style="edgeStyle=orthogonalEdgeStyle;rounded=0;orthogonalLoop=1;jettySize=auto;html=1;exitX=0.75;exitY=1;exitDx=0;exitDy=0;exitPerimeter=0;entryX=0.85;entryY=0.05;entryDx=0;entryDy=0;entryPerimeter=0;" edge="1" parent="RMdziG6QxaL6qYT7HOpn-1" source="RMdziG6QxaL6qYT7HOpn-17" target="RMdziG6QxaL6qYT7HOpn-14">
          <mxGeometry relative="1" as="geometry">
            <mxPoint x="840" y="550" as="targetPoint" />
            <Array as="points">
              <mxPoint x="780" y="520" />
              <mxPoint x="775" y="520" />
            </Array>
          </mxGeometry>
        </mxCell>
        <mxCell id="RMdziG6QxaL6qYT7HOpn-23" value="ClinicalAssessment&lt;br&gt;DetectedIssue&lt;br&gt;AdverseEvent" style="edgeLabel;html=1;align=center;verticalAlign=middle;resizable=0;points=[];" connectable="0" vertex="1" parent="RMdziG6QxaL6qYT7HOpn-22">
          <mxGeometry x="-0.5034" y="2" relative="1" as="geometry">
            <mxPoint x="3" y="48" as="offset" />
          </mxGeometry>
        </mxCell>
        <mxCell id="RMdziG6QxaL6qYT7HOpn-33" style="edgeStyle=orthogonalEdgeStyle;rounded=0;orthogonalLoop=1;jettySize=auto;html=1;exitX=0.5;exitY=0;exitDx=0;exitDy=0;exitPerimeter=0;" edge="1" parent="RMdziG6QxaL6qYT7HOpn-1" source="RMdziG6QxaL6qYT7HOpn-31" target="RMdziG6QxaL6qYT7HOpn-5">
          <mxGeometry relative="1" as="geometry">
            <Array as="points">
              <mxPoint x="1280" y="60" />
              <mxPoint x="85" y="60" />
            </Array>
          </mxGeometry>
        </mxCell>
        <mxCell id="RMdziG6QxaL6qYT7HOpn-36" value="Yes" style="edgeLabel;html=1;align=center;verticalAlign=middle;resizable=0;points=[];" connectable="0" vertex="1" parent="RMdziG6QxaL6qYT7HOpn-33">
          <mxGeometry x="-0.8775" y="1" relative="1" as="geometry">
            <mxPoint as="offset" />
          </mxGeometry>
        </mxCell>
        <mxCell id="RMdziG6QxaL6qYT7HOpn-38" style="edgeStyle=orthogonalEdgeStyle;rounded=0;orthogonalLoop=1;jettySize=auto;html=1;startArrow=classic;startFill=1;" edge="1" parent="RMdziG6QxaL6qYT7HOpn-1" source="RMdziG6QxaL6qYT7HOpn-14">
          <mxGeometry relative="1" as="geometry">
            <mxPoint x="930" y="460" as="targetPoint" />
            <Array as="points">
              <mxPoint x="860" y="595" />
              <mxPoint x="860" y="590" />
              <mxPoint x="930" y="590" />
            </Array>
          </mxGeometry>
        </mxCell>
        <mxCell id="RMdziG6QxaL6qYT7HOpn-39" value="Existing Data &lt;br&gt;and mitigation" style="edgeLabel;html=1;align=center;verticalAlign=middle;resizable=0;points=[];" connectable="0" vertex="1" parent="RMdziG6QxaL6qYT7HOpn-38">
          <mxGeometry x="-0.3073" y="-2" relative="1" as="geometry">
            <mxPoint as="offset" />
          </mxGeometry>
        </mxCell>
      </root>
    </mxGraphModel>
  </diagram>
</mxfile>
